<mxfile host="app.diagrams.net" agent="Mozilla/5.0 (Windows NT 10.0; Win64; x64) AppleWebKit/537.36 (KHTML, like Gecko) Chrome/130.0.0.0 Safari/537.36 Edg/130.0.0.0" version="24.8.6">
  <diagram name="Page-1" id="iwTGkvBtk207ngidzSTX">
    <mxGraphModel dx="1108" dy="482" grid="0" gridSize="10" guides="1" tooltips="1" connect="1" arrows="1" fold="1" page="0" pageScale="1" pageWidth="3300" pageHeight="4681" math="0" shadow="0">
      <root>
        <mxCell id="0" />
        <mxCell id="1" parent="0" />
        <mxCell id="xwB4h29ziE47GwZZUMxw-3" value="" style="edgeStyle=none;curved=1;rounded=0;orthogonalLoop=1;jettySize=auto;html=1;fontSize=12;startSize=8;endSize=8;" edge="1" parent="1" source="xwB4h29ziE47GwZZUMxw-1" target="xwB4h29ziE47GwZZUMxw-2">
          <mxGeometry relative="1" as="geometry" />
        </mxCell>
        <mxCell id="xwB4h29ziE47GwZZUMxw-1" value="başla" style="ellipse;whiteSpace=wrap;html=1;" vertex="1" parent="1">
          <mxGeometry x="204" y="162" width="120" height="80" as="geometry" />
        </mxCell>
        <mxCell id="xwB4h29ziE47GwZZUMxw-5" value="" style="edgeStyle=none;curved=1;rounded=0;orthogonalLoop=1;jettySize=auto;html=1;fontSize=12;startSize=8;endSize=8;" edge="1" parent="1" source="xwB4h29ziE47GwZZUMxw-2" target="xwB4h29ziE47GwZZUMxw-4">
          <mxGeometry relative="1" as="geometry" />
        </mxCell>
        <mxCell id="xwB4h29ziE47GwZZUMxw-2" value="N, A[N]" style="rounded=0;whiteSpace=wrap;html=1;" vertex="1" parent="1">
          <mxGeometry x="204" y="288" width="120" height="60" as="geometry" />
        </mxCell>
        <mxCell id="xwB4h29ziE47GwZZUMxw-12" value="" style="edgeStyle=none;curved=1;rounded=0;orthogonalLoop=1;jettySize=auto;html=1;fontSize=12;startSize=8;endSize=8;" edge="1" parent="1" source="xwB4h29ziE47GwZZUMxw-4" target="xwB4h29ziE47GwZZUMxw-11">
          <mxGeometry relative="1" as="geometry" />
        </mxCell>
        <mxCell id="xwB4h29ziE47GwZZUMxw-4" value="&lt;br&gt;&lt;div&gt;&lt;br&gt;&lt;/div&gt;&lt;div&gt;arrLeft[mid-left+1]&lt;/div&gt;&lt;div&gt;arrRight[right-mid]&lt;/div&gt;" style="rounded=0;whiteSpace=wrap;html=1;" vertex="1" parent="1">
          <mxGeometry x="183" y="373" width="155" height="105" as="geometry" />
        </mxCell>
        <mxCell id="xwB4h29ziE47GwZZUMxw-7" value="küçük parçalara böl" style="text;html=1;align=center;verticalAlign=middle;whiteSpace=wrap;rounded=0;fontSize=16;" vertex="1" parent="1">
          <mxGeometry x="366" y="299" width="60" height="30" as="geometry" />
        </mxCell>
        <mxCell id="xwB4h29ziE47GwZZUMxw-16" style="edgeStyle=none;curved=1;rounded=0;orthogonalLoop=1;jettySize=auto;html=1;fontSize=12;startSize=8;endSize=8;exitX=0;exitY=0.75;exitDx=0;exitDy=0;entryX=0;entryY=0.25;entryDx=0;entryDy=0;" edge="1" parent="1" source="xwB4h29ziE47GwZZUMxw-11" target="xwB4h29ziE47GwZZUMxw-13">
          <mxGeometry relative="1" as="geometry" />
        </mxCell>
        <mxCell id="xwB4h29ziE47GwZZUMxw-21" style="edgeStyle=none;curved=1;rounded=0;orthogonalLoop=1;jettySize=auto;html=1;exitX=1;exitY=0.75;exitDx=0;exitDy=0;fontSize=12;startSize=8;endSize=8;entryX=0.5;entryY=0;entryDx=0;entryDy=0;" edge="1" parent="1" source="xwB4h29ziE47GwZZUMxw-11" target="xwB4h29ziE47GwZZUMxw-23">
          <mxGeometry relative="1" as="geometry">
            <mxPoint x="445.33337854456" y="597.4074503580728" as="targetPoint" />
          </mxGeometry>
        </mxCell>
        <mxCell id="xwB4h29ziE47GwZZUMxw-11" value="left&amp;lt;right" style="shape=hexagon;perimeter=hexagonPerimeter2;whiteSpace=wrap;html=1;fixedSize=1;rounded=0;" vertex="1" parent="1">
          <mxGeometry x="204" y="502" width="120" height="56" as="geometry" />
        </mxCell>
        <mxCell id="xwB4h29ziE47GwZZUMxw-17" style="edgeStyle=none;curved=1;rounded=0;orthogonalLoop=1;jettySize=auto;html=1;exitX=1;exitY=0.75;exitDx=0;exitDy=0;fontSize=12;startSize=8;endSize=8;entryX=0.461;entryY=-0.003;entryDx=0;entryDy=0;entryPerimeter=0;" edge="1" parent="1" source="xwB4h29ziE47GwZZUMxw-13" target="xwB4h29ziE47GwZZUMxw-19">
          <mxGeometry relative="1" as="geometry">
            <mxPoint x="239" y="662" as="targetPoint" />
          </mxGeometry>
        </mxCell>
        <mxCell id="xwB4h29ziE47GwZZUMxw-18" style="edgeStyle=none;curved=1;rounded=0;orthogonalLoop=1;jettySize=auto;html=1;exitX=0;exitY=0.75;exitDx=0;exitDy=0;fontSize=12;startSize=8;endSize=8;entryX=0.5;entryY=0;entryDx=0;entryDy=0;" edge="1" parent="1" source="xwB4h29ziE47GwZZUMxw-13" target="xwB4h29ziE47GwZZUMxw-20">
          <mxGeometry relative="1" as="geometry">
            <mxPoint x="31.74078595196761" y="658.5925790292245" as="targetPoint" />
          </mxGeometry>
        </mxCell>
        <mxCell id="xwB4h29ziE47GwZZUMxw-13" value="A[left]&amp;gt;A[right]" style="shape=hexagon;perimeter=hexagonPerimeter2;whiteSpace=wrap;html=1;fixedSize=1;rounded=0;" vertex="1" parent="1">
          <mxGeometry x="74" y="573" width="120" height="56" as="geometry" />
        </mxCell>
        <mxCell id="xwB4h29ziE47GwZZUMxw-19" value="A[k]=A[right]" style="rounded=0;whiteSpace=wrap;html=1;" vertex="1" parent="1">
          <mxGeometry x="191" y="668" width="120" height="60" as="geometry" />
        </mxCell>
        <mxCell id="xwB4h29ziE47GwZZUMxw-20" value="" style="rounded=0;whiteSpace=wrap;html=1;" vertex="1" parent="1">
          <mxGeometry x="-38" y="668" width="120" height="60" as="geometry" />
        </mxCell>
        <mxCell id="xwB4h29ziE47GwZZUMxw-23" value="int mid=(left+right)/2" style="rounded=0;whiteSpace=wrap;html=1;" vertex="1" parent="1">
          <mxGeometry x="366" y="571" width="120" height="60" as="geometry" />
        </mxCell>
      </root>
    </mxGraphModel>
  </diagram>
</mxfile>
